<svg width="120" height="120" viewBox="0 0 120 120" fill="none" class="drop-shadow-sm"><circle cx="60" cy="60" r="50" fill="#F0F4F0" opacity="0.6"></circle><path d="M35 45 L85 45 L82 75 L38 75 Z" fill="none" stroke="#9CCC65" stroke-width="2" rx="2"></path><path d="M35 45 L30 35 L25 35" stroke="#9CCC65" stroke-width="2.5" stroke-linecap="round" fill="none"></path><line x1="45" y1="50" x2="45" y2="70" stroke="#AED581" stroke-width="1.5"></line><line x1="55" y1="50" x2="55" y2="70" stroke="#AED581" stroke-width="1.5"></line><line x1="65" y1="50" x2="65" y2="70" stroke="#AED581" stroke-width="1.5"></line><line x1="75" y1="50" x2="75" y2="70" stroke="#AED581" stroke-width="1.5"></line><line x1="40" y1="55" x2="80" y2="55" stroke="#AED581" stroke-width="1.5"></line><line x1="40" y1="65" x2="80" y2="65" stroke="#AED581" stroke-width="1.5"></line><circle cx="45" cy="85" r="4" fill="#9CCC65"></circle><circle cx="75" cy="85" r="4" fill="#9CCC65"></circle><rect x="48" y="52" width="6" height="4" rx="1" fill="#C8E6C9"></rect><rect x="58" y="58" width="4" height="6" rx="1" fill="#C8E6C9"></rect><circle cx="70" cy="60" r="2" fill="#C8E6C9"></circle></svg>